<?xml version="1.0" standalone="no"?>
<!DOCTYPE svg PUBLIC "-//W3C//DTD SVG 20010904//EN"
 "http://www.w3.org/TR/2001/REC-SVG-20010904/DTD/svg10.dtd">
<svg version="1.0" xmlns="http://www.w3.org/2000/svg"
 width="1920.000000pt" height="1280.000000pt" viewBox="0 0 1920.000000 1280.000000"
 preserveAspectRatio="xMidYMid meet">
<metadata>
Created by potrace 1.15, written by Peter Selinger 2001-2017
</metadata>
<g transform="translate(0.000000,1280.000000) scale(0.100000,-0.100000)"
fill="white" stroke="none">
<path d="M9185 12794 c-903 -69 -1662 -277 -2447 -670 -666 -333 -1165 -690
-1668 -1194 -504 -503 -861 -1002 -1194 -1668 -360 -720 -563 -1413 -653
-2237 -25 -232 -25 -1018 0 -1250 102 -931 363 -1746 820 -2555 689 -1222
1730 -2145 3060 -2714 596 -255 1191 -409 1862 -482 200 -21 846 -30 1067 -15
899 63 1699 288 2513 705 1040 533 1883 1312 2485 2296 571 932 887 1906 961
2958 15 221 6 867 -15 1067 -101 928 -369 1753 -837 2575 -562 988 -1365 1786
-2359 2347 -714 403 -1489 671 -2255 782 -317 46 -427 53 -865 56 -234 1 -447
1 -475 -1z m595 -1835 c570 -36 1064 -224 1503 -571 127 -101 369 -342 470
-468 262 -329 448 -723 526 -1117 45 -226 55 -328 55 -578 -1 -370 -47 -639
-165 -960 -240 -649 -812 -1257 -1454 -1544 -761 -340 -1724 -300 -2430 101
-222 126 -395 258 -594 452 -467 457 -720 959 -807 1596 -21 152 -24 536 -5
685 64 515 254 971 568 1365 101 126 343 367 470 468 474 375 1000 560 1653
581 25 0 119 -4 210 -10z m-2654 -5111 c171 -179 356 -335 553 -467 485 -324
1010 -513 1590 -571 133 -13 529 -13 662 0 828 83 1580 448 2143 1038 68 71
65 71 207 42 344 -70 638 -228 885 -474 148 -149 216 -236 328 -421 210 -349
375 -774 485 -1252 30 -130 91 -461 91 -494 0 -20 -184 -264 -316 -419 -136
-160 -463 -484 -619 -614 -720 -599 -1558 -1009 -2428 -1186 -379 -77 -672
-105 -1107 -105 -435 0 -728 28 -1107 105 -763 155 -1536 506 -2178 988 -291
218 -644 548 -869 812 -132 155 -316 399 -316 419 0 33 61 364 91 494 110 478
275 903 485 1252 112 185 180 272 328 421 245 244 537 401 879 473 144 31 145
30 213 -41z"/>
</g>
</svg>
